<?xml version="1.0" encoding="UTF-8"?>
<svg width="24px" height="24px" viewBox="0 0 24 24" version="1.1" xmlns="http://www.w3.org/2000/svg" xmlns:xlink="http://www.w3.org/1999/xlink">
    <title>矩形</title>
    <g id="页面-1" stroke="none" stroke-width="1" fill="none" fill-rule="evenodd">
        <g id="拍摄完成-加载备份" transform="translate(-250, -733)" fill="#060530" fill-rule="nonzero" stroke="#060530" stroke-width="0.3">
            <g id="编组-3" transform="translate(250, 733)">
                <g id="编组" transform="translate(4, 4)">
                    <path d="M9.33903948,3.61783154 L2.6280298,3.61783154 L4.87451186,1.36144713 C5.18541739,1.04917115 5.18541739,0.544578853 4.87451186,0.234206989 C4.56360632,-0.0780689964 4.06122848,-0.0780689964 3.75221871,0.234206989 L0.229886516,3.77016129 C0.0592676258,3.94153226 -0.0127714611,4.17002688 0.00239466243,4.39280914 C-0.0146672266,4.6155914 0.0592676258,4.84408602 0.229886516,5.01545699 L3.75032295,8.55141129 C3.90577571,8.70754928 4.10862262,8.78561828 4.31146952,8.78561828 C4.51431642,8.78561828 4.71716332,8.70754928 4.87261609,8.55141129 C5.18352162,8.2391353 5.18352162,7.73454301 4.87261609,7.42417115 L2.67163241,5.21348566 L9.23856391,5.21348566 C12.0120688,5.21348566 14.3495475,7.40703405 14.4121078,10.1927643 C14.4765638,13.0546595 12.1770003,15.4043459 9.34093524,15.4043459 L8.32480496,15.4043459 C8.31343037,15.4043459 8.30016001,15.4024418 8.28878542,15.4024418 L1.47350865,15.4024418 C1.46023829,15.4024418 1.4488637,15.4043459 1.4374891,15.4043459 C1.05833602,15.421483 0.751222013,15.703293 0.690557519,16.0707885 L0.690557519,16.3335573 C0.751222013,16.6991487 1.05833602,16.9809588 1.43369757,17 L9.22150202,17 C12.8727463,17 15.9325117,14.0981183 15.9988635,10.4326837 C16.067111,6.68727599 13.052844,3.61783154 9.33903948,3.61783154 Z" id="路径"></path>
                </g>
            </g>
        </g>
    </g>
</svg>